<svg width="16" height="15" viewBox="0 0 16 15" fill="none" xmlns="http://www.w3.org/2000/svg">
<path d="M7.18054 13.5549L7.17983 13.5542C5.11017 11.6365 3.43202 10.0786 2.26545 8.62023C1.10468 7.16915 0.5 5.8759 0.5 4.49591C0.5 2.23655 2.22166 0.5 4.4 0.5C5.6368 0.5 6.83521 1.09095 7.61714 2.02186L8 2.47767L8.38286 2.02186C9.16479 1.09095 10.3632 0.5 11.6 0.5C13.7783 0.5 15.5 2.23655 15.5 4.49591C15.5 5.8759 14.8953 7.16915 13.7346 8.62023C12.568 10.0786 10.8898 11.6365 8.82017 13.5542L8.81946 13.5549L8 14.3171L7.18054 13.5549Z" stroke="#929292"/>
</svg>
