<svg width="11" height="10" viewBox="0 0 11 10" fill="none" xmlns="http://www.w3.org/2000/svg">
<path d="M10.6096 4.12838L7.61975 3.71886L6.28321 1.1652C6.24671 1.09528 6.18665 1.03868 6.11246 1.00428C5.92641 0.917714 5.70031 0.989852 5.60729 1.1652L4.27074 3.71886L1.2809 4.12838C1.19847 4.13948 1.1231 4.1761 1.0654 4.23159C0.995644 4.29916 0.957204 4.39007 0.958529 4.48434C0.959854 4.57861 1.00083 4.66852 1.07247 4.73433L3.23566 6.72199L2.7246 9.52869C2.71261 9.59398 2.72028 9.66113 2.74672 9.72252C2.77317 9.78391 2.81734 9.83709 2.87423 9.87603C2.93111 9.91497 2.99844 9.9381 3.06856 9.94282C3.13869 9.94753 3.20882 9.93363 3.27099 9.90269L5.94525 8.57758L8.61951 9.90269C8.69252 9.93932 8.7773 9.95152 8.85855 9.9382C9.06345 9.90491 9.20123 9.72179 9.1659 9.52869L8.65484 6.72199L10.818 4.73433C10.8769 4.67995 10.9158 4.60892 10.9275 4.53124C10.9593 4.33702 10.8157 4.15723 10.6096 4.12838Z" fill="#FDA014"/>
</svg>
